<svg xmlns="http://www.w3.org/2000/svg" width="28" height="42" viewBox="0 0 28 42" aria-hidden="true" class="Icon__StyledSVG-lm07h6-0 fFzRmK"><g stroke="#6F6F6F" fill="none" fill-rule="evenodd"><path d="M24.568 23.822l-.719-3.617c-.16-.63-.245-1.226-.482-1.681-.862-1.655-3.313-4.703-3.938-4.869a1.687 1.687 0 00-.44-.052l1.91 10.85 3.669-.631z" stroke-width="1.2"></path><path d="M26.512 27.17c-.085-1.173-1.116-2.075-2.35-2.049-1.285.035-2.341 1.068-2.308 2.338.026.937.634 1.7 1.471 1.997l-.093-.955a1.62 1.62 0 01-.49-1.016c-.06-.805.532-1.47 1.327-1.488.794-.018 1.496.622 1.547 1.436.017.263-.034.517-.144.727l.279.823a2.203 2.203 0 00.76-1.813z" fill="#6F6F6F" stroke-width=".5"></path><path d="M2.295 23.822l.719-3.617c.16-.63.245-1.226.481-1.681.863-1.655 3.314-4.703 3.94-4.869.126-.035.278-.052.439-.052l-1.919 10.84-3.66-.621z" stroke-width="1.2"></path><path d="M.42 27.17c.084-1.173 1.116-2.075 2.35-2.049 1.285.035 2.341 1.068 2.307 2.338-.025.937-.634 1.7-1.47 1.997L3.7 28.5a1.62 1.62 0 00.49-1.016c.059-.805-.533-1.47-1.327-1.488-.795-.018-1.496.622-1.556 1.436-.016.263.034.517.144.727l-.279.823A2.222 2.222 0 01.42 27.17z" fill="#6F6F6F" stroke-width=".5"></path><path stroke-width="1.436" d="M12.047 27.456l-5.088-.014-.527 12.44h5.896V33.04l-.296-.56z"></path><path stroke-width=".513" d="M12.81 37.318H6.04M6.25 32.289h6.265"></path><g><path stroke-width="1.436" d="M19.938 27.45l-5.081.014.008 5.024-.296.567v6.843h5.895z"></path><path stroke-width=".513" d="M14.383 32.298h6.263M20.866 37.36h-6.78"></path></g><path d="M20.806 25.81l-1.31-7.876-.668-4.221c-.042-.294-.21-.54-.481-.54H8.533c-.262 0-.43.246-.482.54l-.667 4.221-1.31 7.875v1.07h14.724v-1.07h.008z" stroke-width="1.436"></path><g><path d="M11.103 3.54c-.017 0 0-1.681 0-1.681a.29.29 0 01.287-.298h4.108a.29.29 0 01.288.298V3.54" stroke-width=".851"></path><path d="M16.411 11.965c1.057 0 1.91-.885 1.91-1.98V5.529c0-1.094-.853-1.979-1.91-1.979h-5.925c-1.057 0-1.91.885-1.91 1.98v4.457c0 1.094.853 1.979 1.91 1.979h5.925z" stroke-width="1.436"></path></g></g></svg>